<svg width="24" height="24" viewBox="0 0 24 24" fill="none" xmlns="http://www.w3.org/2000/svg">
<path d="M12 13.9L13.9 15.8C14.1 15.9833 14.3377 16.075 14.613 16.075C14.8883 16.075 15.1173 15.9833 15.3 15.8C15.5 15.6 15.6 15.3623 15.6 15.087C15.6 14.8117 15.5 14.5827 15.3 14.4L13.4 12.5L15.3 10.6C15.5 10.4 15.6 10.1623 15.6 9.887C15.6 9.61167 15.5 9.38267 15.3 9.2C15.1167 9 14.8873 8.9 14.612 8.9C14.3367 8.9 14.0993 9 13.9 9.2L12 11.1L10.1 9.2C9.91667 9 9.68734 8.9 9.412 8.9C9.13667 8.9 8.89934 9 8.7 9.2C8.51667 9.38334 8.425 9.61267 8.425 9.888C8.425 10.1633 8.51667 10.4007 8.7 10.6L10.6 12.5L8.7 14.4C8.51667 14.5833 8.425 14.8127 8.425 15.088C8.425 15.3633 8.51667 15.6007 8.7 15.8C8.9 15.9833 9.13767 16.075 9.413 16.075C9.68834 16.075 9.91734 15.9833 10.1 15.8L12 13.9ZM7 21C6.45 21 5.979 20.804 5.587 20.412C5.195 20.02 4.99934 19.5493 5 19V6C4.71667 6 4.479 5.904 4.287 5.712C4.095 5.52 3.99934 5.28267 4 5C4 4.71667 4.096 4.479 4.288 4.287C4.48 4.095 4.71734 3.99934 5 4H9C9 3.71667 9.096 3.479 9.288 3.287C9.48 3.095 9.71734 2.99934 10 3H14C14.2833 3 14.521 3.096 14.713 3.288C14.905 3.48 15.0007 3.71734 15 4H19C19.2833 4 19.521 4.096 19.713 4.288C19.905 4.48 20.0007 4.71734 20 5C20 5.28334 19.904 5.521 19.712 5.713C19.52 5.905 19.2827 6.00067 19 6V19C19 19.55 18.804 20.021 18.412 20.413C18.02 20.805 17.5493 21.0007 17 21H7Z" fill="black"/>
</svg>
